<svg width="12" height="6" viewBox="0 0 12 6" fill="none" xmlns="http://www.w3.org/2000/svg">
<path d="M0.930583 0.157712L5.61558 4.76871C5.7178 4.86984 5.85579 4.92656 5.99958 4.92656C6.14337 4.92656 6.28136 4.86984 6.38358 4.76871L11.0696 0.158712C11.1724 0.0576367 11.3109 0.0010004 11.4551 0.0010004C11.5993 0.0010004 11.7377 0.0576367 11.8406 0.158712C11.8912 0.208089 11.9315 0.267105 11.959 0.332282C11.9865 0.397459 12.0006 0.467478 12.0006 0.538212C12.0006 0.608947 11.9865 0.678966 11.959 0.744143C11.9315 0.809319 11.8912 0.868335 11.8406 0.917712L7.15658 5.52771C6.84806 5.83064 6.43296 6.00036 6.00058 6.00036C5.56821 6.00036 5.15311 5.83064 4.84458 5.52771L0.160583 0.917712C0.109781 0.86832 0.0693989 0.809242 0.0418243 0.743973C0.0142498 0.678703 4.19617e-05 0.608568 4.19617e-05 0.537713C4.19617e-05 0.466857 0.0142498 0.396721 0.0418243 0.331452C0.0693989 0.266183 0.109781 0.207105 0.160583 0.157712C0.263439 0.0566368 0.401876 0 0.546083 0C0.69029 0 0.828728 0.0566368 0.931583 0.157712" fill="white"/>
</svg>
